# xmcd
#
# Track frame offsets:
#	150
#	17492
#	30507
#	42970
#	58204
#	78125
#	91787
#	106195
#	121734
#	159979
#
# Disc length: 2377 seconds
#
# Revision: 0
# Processed by: cddbd v1.5.2PL0 Copyright (c) Steve Scherf et al.
# Submitted via: dBpowerAMP V4.0
#
DISCID=6409470a
DTITLE=Pussycat - Simply to be with you
DYEAR=1900
DGENRE=Country
TTITLE0=Danny
TTITLE1=Stranger in town
TTITLE2=A perfect love
TTITLE3=Don't love him
TTITLE4=Alleghenn
TTITLE5=The walls of Xanadu
TTITLE6=Let freedom range
TTITLE7=Three steps and then
TTITLE8=Doin' la Bamba
TTITLE9=On the corner of my life
EXTD=
EXTT0=
EXTT1=
EXTT2=
EXTT3=
EXTT4=
EXTT5=
EXTT6=
EXTT7=
EXTT8=
EXTT9=
PLAYORDER=
